{"title":"Gutshot.Straight(2014)720p.WEB-DL.H264.AAC.Raven","uid":11233205,"size":700247304,"categoryP":"video","categoryS":"movies","magnet":"?xt=urn:btih:9fd649e95f6463857d2ecf8775b9b4eed2c136b7&amp;dn=Gutshot.Straight%282014%29720p.WEB-DL.H264.AAC.Raven&amp;tr=udp%3A%2F%2Ftracker.openbittorrent.com%3A80&amp;tr=udp%3A%2F%2Fopen.demonii.com%3A1337&amp;tr=udp%3A%2F%2Ftracker.coppersurfer.tk%3A6969&amp;tr=udp%3A%2F%2Fexodus.desync.com%3A6969","seeders":0,"leechers":1,"uploader":"Raven1969","files":-1,"time":1413563985,"description":"Gutshot.Straight(2014)720p.WEB-DL.H264.AAC.Raven.mp4\n\n\n\nScreen images:\n\n\n &lt;a href=&quot;\nhttp://i.imgur.com/HV8ZYCx.png&quot; rel=&quot;nofollow&quot; target=&quot;_NEW&quot;&gt;\nhttp://i.imgur.com/HV8ZYCx.png&lt;/a&gt;\n\n &lt;a href=&quot;\nhttp://i.imgur.com/9qmADWo.png&quot; rel=&quot;nofollow&quot; target=&quot;_NEW&quot;&gt;\nhttp://i.imgur.com/9qmADWo.png&lt;/a&gt;\n\n &lt;a href=&quot;\nhttp://i.imgur.com/zMlERPt.png&quot; rel=&quot;nofollow&quot; target=&quot;_NEW&quot;&gt;\nhttp://i.imgur.com/zMlERPt.png&lt;/a&gt;\n\n &lt;a href=&quot;\nhttp://i.imgur.com/17Eo4WF.png&quot; rel=&quot;nofollow&quot; target=&quot;_NEW&quot;&gt;\nhttp://i.imgur.com/17Eo4WF.png&lt;/a&gt;\n\n &lt;a href=&quot;\nhttp://i.imgur.com/Uhie0DC.png&quot; rel=&quot;nofollow&quot; target=&quot;_NEW&quot;&gt;\nhttp://i.imgur.com/Uhie0DC.png&lt;/a&gt;\n\n\n\n\nStoryline:\n\nA professional poker player falls deep into underworld when he takes an unexpected wager from a mysterious high roller.\n\n\n\nGeneral\nFormat                                   : MPEG-4\nFormat profile                           : Base Media\nCodec ID                                 : isom\nFile size                                : 664 MiB\nDuration                                 : 1h 28mn\nOverall bit rate mode                    : Variable\nOverall bit rate                         : 1 045 Kbps\nEncoded date                             : UTC 2014-10-17 10:08:25\nTagged date                              : UTC 2014-10-17 10:08:25\n\nVideo\nID                                       : 1\nFormat                                   : AVC\nFormat/Info                              : Advanced Video Codec\nFormat profile                           : &lt;a class=&quot;__cf_email__&quot; href=&quot;/cdn-cgi/l/email-protection&quot; data-cfemail=&quot;cb83a2aca38b87ffe5fb&quot;&gt;[email&amp;#160;protected]&lt;/a&gt;&lt;script cf-hash='f9e31' type=&quot;text/javascript&quot;&gt;\n/* &lt;![CDATA[ */!function(){try{var t=&quot;currentScript&quot;in document?document.currentScript:function(){for(var t=document.getElementsByTagName(&quot;script&quot;),e=t.length;e--;)if(t[e].getAttribute(&quot;cf-hash&quot;))return t[e]}();if(t&amp;&amp;t.previousSibling){var e,r,n,i,c=t.previousSibling,a=c.getAttribute(&quot;data-cfemail&quot;);if(a){for(e=&quot;&quot;,r=parseInt(a.substr(0,2),16),n=2;a.length-n;n+=2)i=parseInt(a.substr(n,2),16)^r,e+=String.fromCharCode(i);e=document.createTextNode(e),c.parentNode.replaceChild(e,c)}}}catch(u){}}();/* ]]&gt; */&lt;/script&gt;\nFormat settings, CABAC                   : Yes\nFormat settings, ReFrames                : 12 frames\nCodec ID                                 : avc1\nCodec ID/Info                            : Advanced Video Coding\nDuration                                 : 1h 28mn\nBit rate                                 : 950 Kbps\nMaximum bit rate                         : 9 762 Kbps\nWidth                                    : 1 280 pixels\nHeight                                   : 538 pixels\nDisplay aspect ratio                     : 2.40:1\nOriginal display aspect ratio            : 2.40:1\nFrame rate mode                          : Constant\nFrame rate                               : 23.976 fps\nColor space                              : YUV\nChroma subsampling                       : 4:2:0\nBit depth                                : 8 bits\nScan type                                : Progressive\nBits/(Pixel*Frame)                       : 0.058\nStream size                              : 603 MiB (91%)\nWriting library                          : x264 core 132 \nEncoded date                             : UTC 2014-10-17 10:08:25\nTagged date                              : UTC 2014-10-17 10:09:03\n\n\nAudio\nID                                       : 2\nFormat                                   : AAC\nFormat/Info                              : Advanced Audio Codec\nFormat profile                           : LC\nCodec ID                                 : 40\nDuration                                 : 1h 28mn\nBit rate mode                            : Variable\nBit rate                                 : 92.0 Kbps\nMaximum bit rate                         : 125 Kbps\nChannel(s)                               : 2 channels\nChannel positions                        : Front: L R\nSampling rate                            : 48.0 KHz\nCompression mode                         : Lossy\nStream size                              : 58.5 MiB (9%)\nEncoded date                             : UTC 2014-10-17 08:57:18\nTagged date                              : UTC 2014-10-17 10:09:03\n\n\n\n\nPLEASE  SEED FOR AS LONG AS POSSIBLE TO KEEP THE TORRENT ALIVE :-)","torrent":{"xt":"urn:btih:9fd649e95f6463857d2ecf8775b9b4eed2c136b7","amp;dn":"Gutshot.Straight%282014%29720p.WEB-DL.H264.AAC.Raven","amp;tr":["udp%3A%2F%2Ftracker.openbittorrent.com%3A80","udp%3A%2F%2Fopen.demonii.com%3A1337","udp%3A%2F%2Ftracker.coppersurfer.tk%3A6969","udp%3A%2F%2Fexodus.desync.com%3A6969"],"infoHash":"9fd649e95f6463857d2ecf8775b9b4eed2c136b7","infoHashBuffer":{"type":"Buffer","data":[159,214,73,233,95,100,99,133,125,46,207,135,117,185,180,238,210,193,54,183]},"announce":[],"urlList":[]}}